# xmcd CD database file
#
# Track frame offsets:
#	150
#	19417
#	34631
#	51770
#	73121
#	90357
#	103423
#	118225
#	138979
#	154293
#	172521
#
# Disc length: 2519 seconds
#
# Revision: 0
# Processed by: cddbd v1.5.1PL0 Copyright (c) Steve Scherf et al.
# Submitted via: CDex 1.51
#
DISCID=9009d50b
DTITLE=Magda Piskorczyk - Make Your Spirit Fly
DYEAR=2005
DGENRE=Blues
TTITLE0=01. Cry Me A River (D. Washington)
TTITLE1=02. I'm Down In The Dumps (B.Smith)
TTITLE2=03. Braggin' (E.Bibb)
TTITLE3=04. Wild Women Don't Have No Blues (I.Cox, arr. M.Piskorczyk)
TTITLE4=05. Miss Celie's Blues (T. Vega, arr. M. Piskorczyk)
TTITLE5=06. I Believe In Music (M. Davis)
TTITLE6=07. Usmiech Przez Sen (M-L S. Wierzcholski, arr. M. Piskorczyk)
TTITLE7=08. Rowdy Blues (K. Bailey, arr. M. Piskorczyk)
TTITLE8=09. Canned Heat (T. "Snake" Joshnson, arr. M. Piskorczyk)
TTITLE9=10. You Gotta Move (M. Fred McDowell, arr. M. Piskorczyk)
TTITLE10=11. Get Back (B.B.Bronzy, arr. M. Piskorczyk)
EXTD=YEAR: 2005
EXTT0=
EXTT1=
EXTT2=
EXTT3=
EXTT4=
EXTT5=
EXTT6=
EXTT7=
EXTT8=
EXTT9=
EXTT10=
PLAYORDER=
